<svg t="1626697473675" class="icon" viewBox="0 0 1111 1024" version="1.1" xmlns="http://www.w3.org/2000/svg" p-id="1990" width="200" height="200"><path d="M1111.114657 512.000109c0-86.296572-72.919623-163.573507-187.996243-216.558425 12.41834-128.235703-16.514214-231.351501-89.760635-274.271028A156.667167 156.667167 0 0 0 752.529635 0.015904 349.739678 349.739678 0 0 0 555.557329 78.447527 349.913971 349.913971 0 0 0 358.585022 0.015904a156.64538 156.64538 0 0 0-80.806358 21.154752C204.575816 64.286262 175.381823 167.402059 187.996243 295.332751 72.963196 348.339456 0 425.616391 0 512.000109s72.919623 163.399214 187.996243 216.427706c-12.396554 128.19213 16.536 231.286141 89.782421 274.51068a157.190044 157.190044 0 0 0 80.806358 21.045819 349.935757 349.935757 0 0 0 196.972307-78.431623 349.696105 349.696105 0 0 0 196.972306 78.431623 157.124684 157.124684 0 0 0 80.610279-21.002246c73.202848-43.159179 102.396841-146.231403 89.782421-274.51068C1038.173248 675.399323 1111.114657 597.991669 1111.114657 512.000109zM752.529635 69.013946a90.348872 90.348872 0 0 1 47.037187 11.764743c41.830199 24.640602 63.18103 91.285694 58.562278 182.811041 0 1.895431-0.413945 3.834435-0.544664 5.773439a859.262001 859.262001 0 0 0-145.120289-34.858499 882.922208 882.922208 0 0 0-101.808603-110.8936A272.005225 272.005225 0 0 1 752.507848 68.86144zM829.305479 603.503669a755.993698 755.993698 0 0 1 19.607906 80.610279 728.716923 728.716923 0 0 1-78.431623 23.442341c10.544696-16.492427 20.915099-33.377013 30.784412-50.871622s19.346467-35.555669 28.191811-53.268144z m-86.797663 18.736443a1040.831208 1040.831208 0 0 1-66.144002 102.396841 942.987759 942.987759 0 0 1-241.591185 0 1040.068679 1040.068679 0 0 1-66.144002-102.396841 1014.011951 1014.011951 0 0 1-53.725661-110.479655 1025.210244 1025.210244 0 0 1 119.82609-212.331833 942.595601 942.595601 0 0 1 241.591185 0 1023.968409 1023.968409 0 0 1 119.826091 212.593271 1037.040347 1037.040347 0 0 1-53.660302 110.087498zM555.557329 857.709273a737.104749 737.104749 0 0 1-59.62982-58.126547c19.607906 1.089328 39.433677 1.721138 59.56446 1.721138s39.934768-0.63181 59.520887-1.721138a736.538298 736.538298 0 0 1-59.455527 57.995828zM309.957416 656.66288c9.912886 17.42925 20.261503 34.379195 30.784412 50.871622a732.02848 732.02848 0 0 1-78.431623-23.442341 756.494789 756.494789 0 0 1 19.607906-80.610279q13.311589 26.536032 28.322531 53.115638z m-27.886799-236.841714a790.525399 790.525399 0 0 1-19.172175-80.152762 731.069871 731.069871 0 0 1 77.865173-23.202688 1084.752917 1084.752917 0 0 0-58.605852 103.246517zM555.557329 166.290945a737.584053 737.584053 0 0 1 59.455527 58.126547q-29.390072-1.655779-59.520887-1.699352t-59.56446 1.699352A736.756164 736.756164 0 0 1 555.557329 166.203798z m245.490979 201.068179a1122.007938 1122.007938 0 0 0-30.784412-50.915195 730.830219 730.830219 0 0 1 78.431623 23.464127 754.163627 754.163627 0 0 1-19.607906 80.610279q-13.071937-26.775685-28.061091-53.35529zM311.547835 80.778689a90.348872 90.348872 0 0 1 47.037187-11.764743 271.918079 271.918079 0 0 1 141.895878 54.836776 886.58235 886.58235 0 0 0-101.808604 110.8936 859.305575 859.305575 0 0 0-144.684557 34.59706C248.366806 175.811672 268.889747 105.833235 311.547835 80.626183zM67.538342 512.000109c0-50.326958 49.150484-103.420809 131.242249-144.92421a902.116169 902.116169 0 0 0 42.854167 144.92421 900.743615 900.743615 0 0 0-42.810594 145.054929C116.819545 615.290199 67.538342 562.109201 67.538342 512.000109z m291.04668 442.87723a90.261726 90.261726 0 0 1-47.037187-11.764743c-41.830199-24.684175-63.18103-91.285694-58.562278-182.811041 0-1.895431 0.413945-3.921581 0.544664-5.773439a858.695551 858.695551 0 0 0 145.120289 34.858499 892.813307 892.813307 0 0 0 101.808603 110.8936 271.961652 271.961652 0 0 1-141.808731 54.662484zM857.976594 760.366915c4.618751 91.50356-16.536 158.126866-58.562278 182.811041a90.261726 90.261726 0 0 1-47.037187 11.764743 271.613067 271.613067 0 0 1-141.895878-54.836776 889.327457 889.327457 0 0 0 101.808604-110.850027 859.305575 859.305575 0 0 0 145.120289-34.858499 35.751748 35.751748 0 0 1 0.588237 5.904158z m54.466405-103.268304a905.885244 905.885244 0 0 0-42.854167-144.92421 907.170651 907.170651 0 0 0 42.854167-144.924209c82.048192 41.5034 131.155103 94.597252 131.155103 144.924209s-49.215843 103.115797-131.220463 144.880637zM465.469895 512.000109a90.131007 90.131007 0 1 0 180.21844 0 90.131007 90.131007 0 1 0-180.21844 0z" p-id="1991" fill="#11564b"></path></svg>
