<svg t="1621047977256" class="icon" viewBox="0 0 1024 1024" version="1.1" xmlns="http://www.w3.org/2000/svg" p-id="4672" width="200" height="200"><path d="M914.030911 321.988412c36.942377-42.659589 43.73099-104.642269 15.033391-137.729851-28.691459-33.096792-82.397638-25.289989-119.346155 17.364483L478.375693 584.006987c-36.987403 42.642193-97.452519 42.642193-134.402059 0L213.74564 433.728332c-36.954657-42.690288-90.669022-50.484811-119.346155-17.364483-28.688389 33.090653-21.915126 95.045703 15.037485 137.693012l234.741325 270.889617c36.968983 42.644239 90.691535 50.488905 119.348202 17.35732 28.699646-33.075303 52.109822-60.231803 52.061726-60.276828-0.058328-0.058328 30.113855-35.0554 67.094094-77.69964L914.030911 321.988412z" p-id="4673" fill="#D6D5B7"></path></svg>
