<svg t="1619274837652" class="icon" viewBox="0 0 1024 1024" version="1.1" xmlns="http://www.w3.org/2000/svg" p-id="9247" width="200" height="200"><path d="M895.7 113.8c0-35.3-28.7-64-64-64s-64 28.7-64 64v73.6l128 116V113.8zM1010.6 460.9l-407-343.3c-7-7.8-45.7-48.5-45.7-48.5-12.7-12.7-29.5-18.8-46.2-18.6-16.7-0.2-33.5 5.8-46.2 18.6L18.9 449.6c-25 25-25 65.5 0 90.5s65.5 25 90.5 0l380-314c6.3-5.9 14.2-9.1 22.3-9 8-0.1 16 3.1 22.3 9l380 316c25 25 65.5 25 90.5 0 22.2-22.2 23.5-56.3 6.1-81.2z" p-id="9248" fill="#11564b"></path><path d="M191.7 550v331.9c0 35.3 28.7 64 64 64h256v-128c0-35.3 28.7-64 64-64s64 28.7 64 64v128h128c35.3 0 64-28.7 64-64V550l-320-256-320 256z" p-id="9249" fill="#11564b"></path></svg>
