<svg t="1619275004693" class="icon" viewBox="0 0 1024 1024" version="1.1" xmlns="http://www.w3.org/2000/svg" p-id="11491" width="200" height="200"><path d="M917.504 405.504h-149.504c-22.528 0-43.008 18.432-43.008 43.008V1024h235.52V448.512c0-24.576-20.48-43.008-43.008-43.008z m-43.008 512h-63.488v-63.488h63.488v63.488z m0-149.504h-63.488v-63.488h63.488v63.488z m0-169.984h-63.488V532.48h63.488v65.536z m0 0M661.504 575.488h-106.496c-22.528 0-43.008 18.432-43.008 43.008V1024h192.512V618.496c0-22.528-20.48-43.008-43.008-43.008z m-20.48 342.016h-63.488v-63.488h63.488v63.488z m0-149.504h-63.488v-63.488h63.488v63.488z m0 0M448.512 235.52h-22.528V169.984c0-24.576-18.432-43.008-43.008-43.008h-73.728V32.768c0-18.432-14.336-32.768-32.768-32.768-16.384 0-30.72 14.336-30.72 32.768v96.256H169.984c-24.576 0-43.008 18.432-43.008 43.008v63.488h-20.48c-22.528 0-43.008 18.432-43.008 43.008V1024H491.52V276.48c0-22.528-20.48-40.96-43.008-40.96zM235.52 917.504H169.984v-63.488h63.488v63.488z m0-149.504H169.984v-63.488h63.488v63.488z m0-169.984H169.984V532.48h63.488v65.536z m0-172.032H169.984v-63.488h63.488v63.488z m147.456 491.52h-63.488v-63.488h63.488v63.488z m0-149.504h-63.488v-63.488h63.488v63.488z m0-169.984h-63.488V532.48h63.488v65.536z m0-172.032h-63.488v-63.488h63.488v63.488z m0 0" p-id="11492" fill="#11564b"></path></svg>
