<svg t="1619275067336" class="icon" viewBox="0 0 1024 1024" version="1.1" xmlns="http://www.w3.org/2000/svg" p-id="13741" width="200" height="200"><path d="M512 1024C229.376 1024 0 794.624 0 512S229.376 0 512 0s512 229.376 512 512-229.376 512-512 512z m31.232-951.808c3.072 3.072 5.12 6.656 4.608 10.24-1.024 28.672-44.032 66.048-62.976 61.952-18.944-4.096-7.168-45.568-20.48-53.76-12.8-8.192-67.072 7.168-95.744 26.112-28.672 18.944-20.48 34.304-9.728 33.792 10.752-1.024 30.208-19.456 48.128-23.552 17.92-4.096 28.672 13.824 28.672 39.424s-46.592 20.48-95.744 33.28c-49.152 13.312-80.384 108.032-84.992 120.32-5.12 12.288-30.208 1.536-35.328-12.288-4.608-13.824-22.016 5.12-35.328 12.288-12.8 7.168-13.824 39.424-10.752 42.496 3.072 3.072 20.992-2.56 23.552 13.312 2.56 15.36 9.216 52.224-5.632 55.808-14.848 3.072-35.328-37.376-39.424-53.76-3.584-13.824-16.384-70.656-20.48-89.6A444.3648 444.3648 0 0 0 71.168 512c0 243.712 197.632 440.832 440.832 440.832 164.352 0 308.224-90.112 384-223.744-19.456 15.36-44.544 29.184-72.704 29.184-52.224 0 5.632-126.464 5.632-126.464S864.768 486.4 773.12 491.52c-127.488 6.656-127.488-103.936-123.392-144.896 5.632-56.32 29.696-74.752 67.584-92.16 58.368-27.136 141.824 10.752 141.824 10.752 11.776 5.632 22.528 12.8 32.256 20.992-72.192-120.32-200.192-203.776-348.16-214.016zM371.2 888.832c-15.36 10.24-31.744-18.432-55.808-41.472-17.92-17.408-37.376-73.728-35.328-104.96 2.56-31.232-43.52-92.16-65.536-111.104-22.016-18.944-24.576-158.208-10.752-172.544 47.616-49.152 158.72 48.128 173.568 61.952 23.04 22.016 71.168 9.728 101.376 61.44s-99.328 167.424-116.736 205.312c-16.896 37.376 30.208 87.552 9.216 101.376z" p-id="13742" fill="#11564b"></path></svg>
