<svg t="1619274652234" class="icon" viewBox="0 0 1396 1024" version="1.1" xmlns="http://www.w3.org/2000/svg" p-id="5488" width="200" height="200"><path d="M1151.813818 348.625455H754.781091a45.893818 45.893818 0 0 1 0-91.694546h397.032727a45.800727 45.800727 0 1 1 0 91.694546z m-80.989091 208.802909H754.688a45.893818 45.893818 0 0 1 0-91.694546h315.578182a45.800727 45.800727 0 0 1 0 91.694546h0.372363z m-81.547636 208.802909H754.781091a45.893818 45.893818 0 0 1 0-91.694546h234.216727a45.800727 45.800727 0 1 1 0 91.694546h0.279273zM424.215273 277.410909a71.307636 71.307636 0 1 0 70.562909 71.959273v-0.744727a71.493818 71.493818 0 0 0-70.935273-71.307637h0.279273z m0 244.363636a111.709091 111.709091 0 0 0-111.709091 111.709091v5.026909a3.072 3.072 0 0 0 0 1.303273v99.793455a6.237091 6.237091 0 0 0 6.050909 6.330182h211.502545a6.330182 6.330182 0 0 0 5.771637-6.330182v-99.607273A111.709091 111.709091 0 0 0 424.494545 521.774545h-0.558545 0.279273z m111.709091 315.578182H311.668364a91.694545 91.694545 0 0 1-91.694546-91.694545v-111.709091c0-67.677091 33.605818-130.978909 89.646546-168.866909a161.326545 161.326545 0 0 1-48.779637-116.456727 162.909091 162.909091 0 1 1 325.818182-0.093091c0.186182 43.752727-17.501091 85.829818-48.872727 116.363636a203.869091 203.869091 0 0 1 89.646545 168.866909v111.709091a91.787636 91.787636 0 0 1-91.694545 91.880727zM148.945455 908.567273h1119.976727V114.501818H149.038545v794.065455z m1119.976727 91.601454H149.038545a91.787636 91.787636 0 0 1-91.787636-91.601454V114.501818c0-50.641455 41.053091-91.694545 91.694546-91.694545h1119.976727a91.787636 91.787636 0 0 1 91.601454 91.694545v794.065455a91.787636 91.787636 0 0 1-91.601454 91.694545z" p-id="5489" fill="#11564b"></path></svg>
