<svg t="1619248762578" class="icon" viewBox="0 0 1024 1024" version="1.1" xmlns="http://www.w3.org/2000/svg" p-id="10513" width="200" height="200"><path d="M811.1 370l-79.8 0c0-128.3-97.9-226.2-222.9-226.2-125 0-222.9 98-222.9 226.2l-79.8 0c0-153.9 135.8-306.1 302.7-306.1C675.3 64 811.1 216.1 811.1 370L811.1 370zM811.1 370" p-id="10514" fill="#11564b"></path><path d="M858.3 501.2c0-44.1-35.8-79.8-79.8-79.8L245.6 421.4c-44.1 0-79.8 35.8-79.8 79.8l0 379c0 44.1 35.8 79.8 79.8 79.8l532.9 0c44.1 0 79.8-35.8 79.8-79.8L858.3 501.2 858.3 501.2zM576.1 797.5c0 33.1-26.8 59.9-59.9 59.9l-8.5 0c-33.1 0-59.9-26.8-59.9-59.9L447.8 635.1c0-33.1 26.8-59.9 59.9-59.9l8.5 0c33.1 0 59.9 26.8 59.9 59.9L576.1 797.5 576.1 797.5zM576.1 797.5" p-id="10515" fill="#11564b"></path></svg>
