<svg t="1619275038346" class="icon" viewBox="0 0 1024 1024" version="1.1" xmlns="http://www.w3.org/2000/svg" p-id="12310" width="200" height="200"><path d="M1023.906386 1024l-62.677698-343.593729c0-10.385336 0-10.385336-10.458473-10.385336H699.986287c-10.385336 0-10.385336 0-20.843809 10.385336-41.833889 62.45829-94.053115 114.531243-135.813868 176.989533-20.916945 31.229145-52.292362 31.229145-73.13617 0-41.833889-62.45829-94.053115-114.531243-135.887005-176.989533L323.993235 670.020935H73.13617c-10.458472 0-10.458472 0-10.458472 10.385336-10.458472 62.45829-20.916945 114.531243-31.302281 176.989533C20.916945 909.468757 10.458472 971.927047 0 1024h1023.906386z m-511.953193-260.364767c-20.916945-20.770672-41.760753-41.614481-62.677698-72.843625-52.219226-72.843626-104.511588-145.760388-167.189286-218.67715C240.325456 420.187777 219.408511 357.729488 219.408511 284.812726 229.866984 159.82301 323.920099 24.447959 470.19244 3.60415 595.547836-17.166522 710.444759 55.677104 773.049321 170.208347c41.833889 93.76057 31.375417 197.833341-31.302281 291.520775-73.13617 93.76057-146.272341 197.833341-229.866983 301.979248zM355.22238 286.567994c0 93.76057 73.13617 156.21886 156.730813 156.21886 83.594643 0 156.730813-72.916762 156.730813-156.21886 0-83.302098-73.13617-156.145724-156.730813-156.145724-83.594643 0-156.730813 72.843626-156.730813 156.145724z" fill="#11564b" p-id="12311"></path></svg>
