<svg t="1619274952962" class="icon" viewBox="0 0 1024 1024" version="1.1" xmlns="http://www.w3.org/2000/svg" p-id="10652" width="200" height="200"><path d="M981.333333 407.893333C981.333333 300.885333 896.853333 213.333333 793.6 213.333333H449.408v239.957334c18.773333 22.698667 31.317333 51.882667 31.317333 84.309333 0 35.669333-12.544 68.096-37.546666 90.794667-21.930667 25.941333-53.205333 38.912-87.637334 38.912-68.821333 0-125.141333-58.368-125.141333-129.706667 0-32.426667 9.386667-61.610667 31.274667-84.309333V213.333333H230.4C127.146667 213.333333 42.666667 300.885333 42.666667 407.893333v389.12h406.741333V1024h125.184v-226.986667H981.333333V407.893333z m-62.592 291.84H605.866667v-259.413333c0-90.794667 68.821333-162.133333 156.458666-162.133333 87.594667 0 156.416 71.338667 156.416 162.133333v259.413333z" fill="#11564b" p-id="10653"></path><path d="M128 125.738667h209.066667v355.285333a41.514667 41.514667 0 0 0-11.946667 9.386667c-11.946667 12.586667-17.92 28.330667-17.92 44.032 0 34.56 26.88 62.890667 59.733333 62.890666 14.933333 0 29.866667-6.272 41.813334-18.858666 11.946667-12.586667 17.92-28.288 17.92-44.032 0-15.701333-5.973333-31.445333-17.92-43.989334-2.986667-3.157333-8.96-6.314667-11.946667-9.429333V0H128v125.738667z" fill="#11564b" p-id="10654"></path></svg>
