<svg t="1626076551122" class="icon" viewBox="0 0 1024 1024" version="1.1" xmlns="http://www.w3.org/2000/svg" p-id="2327" width="200" height="200"><path d="M726.54848 787.12832l-217.088-217.088-217.088 217.088a40.96 40.96 0 0 1-57.91744 0 40.96 40.96 0 0 1-12.00128-28.95872 40.96 40.96 0 0 1 12.00128-28.95872l217.088-217.088-217.088-217.088a40.96 40.96 0 0 1-12.00128-28.95872 40.96 40.96 0 0 1 12.00128-28.95872 40.96 40.96 0 0 1 57.91744 0l217.088 217.088 217.088-217.088a40.96 40.96 0 0 1 57.9584 0 40.96 40.96 0 0 1 12.00128 28.95872 40.96 40.96 0 0 1-12.00128 28.95872l-217.088 217.088 217.088 217.088a40.96 40.96 0 0 1 12.00128 28.95872 40.96 40.96 0 0 1-12.00128 28.95872 40.96 40.96 0 0 1-28.95872 12.00128 40.96 40.96 0 0 1-28.99968-12.00128z" p-id="2328" fill="#11564b"></path></svg>
