<svg t="1626138233251" class="icon" viewBox="0 0 1024 1024" version="1.1" xmlns="http://www.w3.org/2000/svg" p-id="4200" width="200" height="200"><path d="M512 56.888889a455.111111 455.111111 0 0 0-455.111111 455.111111 455.111111 455.111111 0 0 0 455.111111 455.111111 455.111111 455.111111 0 0 0 455.111111-455.111111 455.111111 455.111111 0 0 0-455.111111-455.111111z m111.047111 270.336c12.856889-12.743111 30.151111-19.911111 48.241778-20.024889 17.863111 0 35.669333 7.395556 48.241778 20.024889 12.629333 12.572444 20.024889 30.378667 20.024889 48.241778 0 17.863111-7.395556 35.669333-20.024889 48.241777-12.8 12.743111-30.151111 19.911111-48.241778 20.024889a68.949333 68.949333 0 0 1-48.241778-20.024889A68.949333 68.949333 0 0 1 603.022222 375.466667c0-17.863111 7.395556-35.669333 20.024889-48.241778z m-318.577778 0c12.856889-12.743111 30.151111-19.911111 48.241778-20.024889 17.863111 0 35.669333 7.395556 48.241778 20.024889 12.629333 12.572444 20.024889 30.378667 20.024889 48.241778 0 17.863111-7.395556 35.669333-20.024889 48.241777-12.8 12.743111-30.151111 19.911111-48.241778 20.024889a68.949333 68.949333 0 0 1-48.241778-20.024889A68.949333 68.949333 0 0 1 284.444444 375.466667c0-17.863111 7.395556-35.669333 20.024889-48.241778z m481.905778 239.445333c-10.24 132.892444-118.556444 236.544-270.563555 235.975111-156.330667 1.706667-264.704-107.178667-270.506667-235.975111a23.324444 23.324444 0 0 1-2.446222-10.410666c0-13.596444 11.605333-24.632889 26.282666-24.519112h493.795556c14.336 0 26.055111 11.036444 26.055111 24.519112a24.291556 24.291556 0 0 1-2.616889 10.410666z" p-id="4201" fill="#11564b"></path></svg>
