<svg t="1626318513247" class="icon" viewBox="0 0 1024 1024" version="1.1" xmlns="http://www.w3.org/2000/svg" p-id="2927" width="200" height="200"><path d="M926.49 413.18l-141.71 24s-28.1-103.55-109.89-131.33-142.4-25.27-180.29-42.95-80.82-60.62-80.82-60.62-40.41-10.1-65.67 27.79 42.94 116.53 106.08 131.51H124.5a61.79 61.79 0 1 0 0 123.58h248.63a239.81 239.81 0 0 0-21.44 99.45c0 133 107.8 240.77 240.78 240.77a240 240 0 0 0 167-67.35 55.68 55.68 0 0 1 28.53 1.31C836 774.49 926.49 787 926.49 787s35.36-46.72 35.36-162.9c0-140.84-35.36-210.92-35.36-210.92z" p-id="2928" fill="#11564b"></path></svg>
