<svg t="1620910836954" class="icon" viewBox="0 0 1024 1024" version="1.1" xmlns="http://www.w3.org/2000/svg" p-id="1871" width="26" height="26"><path d="M512 1024C229.236 1024 0 794.764 0 512S229.236 0 512 0s512 229.236 512 512-229.236 512-512 512z m231.424-698.182c-13.219 0-25.228 5.493-33.885 14.336L432.175 626.13 314.46 503.948a47.197 47.197 0 0 0-33.885-14.383c-26.391 0-47.849 21.97-47.849 49.106 0 13.544 5.353 25.832 14.01 34.676l151.599 156.998a47.057 47.057 0 0 0 67.724 0l311.156-320.698c8.704-8.89 14.057-21.179 14.057-34.723 0-27.09-21.458-49.106-47.849-49.106z" fill="#D6D5B7" p-id="1872"></path></svg>
