<svg t="1625970987303" class="icon" viewBox="0 0 1024 1024" version="1.1" xmlns="http://www.w3.org/2000/svg" p-id="2419" width="200" height="200"><path d="M107.648 18.517a95.317 95.317 0 0 0-96.128 96.256v611.328a96.128 96.128 0 0 0 96.128 99.968h165.333V964.48a52.693 52.693 0 0 0 53.846 53.845c14.08-1.066 27.52-6.4 38.4-15.36L542.123 826.07h369.152a95.317 95.317 0 0 0 96.128-96.128V114.773a89.984 89.984 0 0 0-92.246-96.256H107.648z m522.923 569.174H215.339a50.005 50.005 0 0 1 0-100.011H630.57a50.005 50.005 0 0 1 0 99.968z m176.853-230.742h-592.17a48.427 48.427 0 0 1-49.92-50.048 50.773 50.773 0 0 1 50.005-49.92h592.17a50.773 50.773 0 0 1 35.755 85.803 48.427 48.427 0 0 1-35.755 14.165h-0.085z" p-id="2420" fill="#11564b"></path></svg>
