<svg t="1619225651868" class="icon" viewBox="0 0 1024 1024" version="1.1" xmlns="http://www.w3.org/2000/svg" p-id="1621" width="200" height="200"><path d="M512 70.4c243.2 0 441.6 198.4 441.6 441.6s-198.4 441.6-441.6 441.6S70.4 755.2 70.4 512 268.8 70.4 512 70.4M512 0C230.4 0 0 230.4 0 512s230.4 512 512 512 512-230.4 512-512-230.4-512-512-512zM326.4 300.8c-32 0-57.6 25.6-57.6 57.6s25.6 57.6 57.6 57.6 57.6-25.6 57.6-57.6-25.6-57.6-57.6-57.6z m371.2 0c-32 0-57.6 25.6-57.6 57.6s25.6 57.6 57.6 57.6 57.6-25.6 57.6-57.6c6.4-32-25.6-57.6-57.6-57.6z m70.4 409.6c-70.4-76.8-160-121.6-256-121.6-102.4 0-192 44.8-256 121.6l51.2 44.8c51.2-57.6 128-96 204.8-96 76.8 0 147.2 32 204.8 96l51.2-44.8z m0 0" fill="#11564b" p-id="1622"></path></svg>
