<svg t="1619193159062" class="icon" viewBox="0 0 1024 1024" version="1.1" xmlns="http://www.w3.org/2000/svg" p-id="5556" width="200" height="200"><path d="M814.56 134.5H211.15C148.64 134.5 98 185.13 98 247.64v377.14c0 62.51 50.63 113.14 113.14 113.14h264v75.43H362c-20.83 0-37.71 16.89-37.71 37.71 0 20.83 16.89 37.71 37.71 37.71h301.71c20.83 0 37.71-16.89 37.71-37.71 0-20.83-16.89-37.71-37.71-37.71H550.57v-75.43h264c62.51 0 113.14-50.63 113.14-113.14V247.64c0-62.51-50.64-113.14-113.15-113.14z m37.72 490.28c0 20.84-16.88 37.71-37.71 37.71H211.15c-20.84 0-37.71-16.88-37.71-37.71V247.64c0-20.84 16.88-37.71 37.71-37.71h603.42c20.84 0 37.71 16.88 37.71 37.71v377.14z" fill="#D6D5B7" p-id="5557"></path></svg>
