<svg t="1616945576422" class="icon" viewBox="0 0 1026 1024" version="1.1" xmlns="http://www.w3.org/2000/svg" p-id="3825" width="128" height="128" fill="#D6D5B7"><path d="M657.05472 513.45408c-1.63328 74.81344-60.08832 133.26848-134.90176 134.90176s-133.30944-62.56128-134.89152-134.90176c-1.6384-74.80832 62.54592-133.31968 134.89152-134.90176 74.81344-1.6384 133.31456 62.55104 134.90176 134.90176 0.72192 32.96768 51.92704 33.03936 51.2 0-2.24768-102.93248-83.16416-183.84896-186.10176-186.10176-102.92224-2.2528-183.91552 86.56384-186.09152 186.10176-2.2528 102.92224 86.54848 183.92064 186.09152 186.10176 102.92736 2.24768 183.92576-86.55872 186.10176-186.10176 0.72704-33.03936-50.47808-32.96768-51.2 0z" p-id="3826"></path><path d="M977.43872 504.85248c-0.55808 0.75264-1.13152 1.50016-1.69984 2.24256 2.21696-2.90304 1.42848-1.82272-2.15552 2.67776a810.67008 810.67008 0 0 1-22.64576 27.0592c-25.01632 28.78464-51.88096 55.94112-80.00512 81.68448-77.0816 70.54848-168.1664 130.00704-270.78144 154.38848-200.68864 47.68768-389.13536-95.85664-513.24416-238.6432a782.99136 782.99136 0 0 1-20.40832-24.48896c-3.59936-4.49024-4.3776-5.57568-2.15552-2.67776a215.63392 215.63392 0 0 1-1.69984-2.24256v25.84064c0.55808-0.75264 1.13152-1.50016 1.69984-2.24256-2.21696 2.89792-1.4336 1.82272 2.15552-2.67776a809.65632 809.65632 0 0 1 22.64576-27.0592c25.01632-28.78464 51.88096-55.94112 80.00512-81.68448 77.0816-70.54848 168.1664-130.00704 270.78656-154.3936 200.68864-47.68768 389.13024 95.86176 513.23904 238.64832a796.2624 796.2624 0 0 1 20.40832 24.48896c3.59936 4.49536 4.3776 5.57568 2.15552 2.67776 0.56832 0.74752 1.14176 1.48992 1.69984 2.24256 19.456 26.17856 63.92832 0.69632 44.2112-25.84064-91.47904-123.1104-223.22176-232.18688-369.42848-280.91392C439.30624 152.9856 234.26048 274.5856 88.9856 423.39328c-25.04192 25.64608-49.152 52.66432-70.54848 81.46432-4.87424 6.55872-4.87424 19.28704 0 25.84064C109.91616 653.80352 241.65888 762.88 387.87072 811.61216c212.9152 70.95296 417.95584-50.64704 563.23072-199.4496 25.04192-25.6512 49.152-52.66432 70.54848-81.46432 19.72224-26.53696-24.7552-52.02432-44.2112-25.84576z" p-id="3827"></path></svg>
