<svg t="1621329476187" class="icon" viewBox="0 0 1024 1024" version="1.1" xmlns="http://www.w3.org/2000/svg" p-id="7643" width="200" height="200"><path d="M511.998194 64.00158c-247.423167 0-447.996613 200.573446-447.996614 447.996614S264.575027 959.99842 511.998194 959.99842s448.000226-200.577059 448.000226-448.000226S759.421361 64.00158 511.998194 64.00158zM865.90161 661.473692a382.654818 382.654818 0 1 1 22.35016-72.003133A383.930009 383.930009 0 0 1 865.90161 661.473692z" fill="#11564b" p-id="7644"></path><path d="M383.821636 384.027545a31.970084 31.970084 0 0 0 31.970084-31.970085V288.059492a31.970084 31.970084 0 0 0-63.940169 0v63.997968a31.970084 31.970084 0 0 0 31.970085 31.970085zM639.943556 384.027545a31.970084 31.970084 0 0 0 31.970084-31.970085V288.059492a31.970084 31.970084 0 0 0-63.940169 0v63.997968a31.970084 31.970084 0 0 0 31.970085 31.970085zM812.459189 482.549592a31.868936 31.868936 0 0 0-12.459302-2.528708c-0.671914 0-1.336602 0.021675-1.997679 0.065024H225.997792a33.241663 33.241663 0 0 0-1.997679-0.065024 32.027884 32.027884 0 0 0-31.998984 32.035109q0 0.798349 0.039737 1.58586a319.964553 319.964553 0 0 0 639.907431 1.784545 32.345778 32.345778 0 0 0 0.177009-3.370405 31.977309 31.977309 0 0 0-19.666117-29.506401z m-119.420006 210.489591A255.977422 255.977422 0 0 1 257.928139 544.033302h508.129272a255.142949 255.142949 0 0 1-73.018228 149.005881z" fill="#11564b" p-id="7645"></path></svg>
