<svg t="1621328229843" class="icon" viewBox="0 0 1152 1024" version="1.1" xmlns="http://www.w3.org/2000/svg" p-id="3675" width="200" height="200"><path d="M398.72 546.944H768v-69.888H398.72v69.888zM128 407.296h221.44v209.408H128V407.296z m73.856 139.52h73.856v-69.76h-73.856v69.888z m196.864-279.168H768v-69.888H398.72v69.888zM128 128h221.44v209.408H128V128z m73.856 139.52h73.856v-69.76h-73.856v69.888z m196.864 558.72H768v-69.888H398.72v69.888zM128 686.592h221.44V896H128V686.592z m73.856 139.52h73.856V756.48h-73.856v69.888z" p-id="3676" fill="#11564b"></path><path d="M806.4 512v512H0V184.32C0 82.56 92.8 0 207.36 0h737.28C1059.2 0 1152 82.56 1152 184.32V512H806.4zM69.12 184.32v778.24h668.16V184.32c0-47.36 20.224-90.24 53.12-122.88H207.36C131.072 61.44 69.12 116.48 69.12 184.32z m1013.76 0c0-67.84-61.952-122.88-138.24-122.88-76.288 0-138.24 55.04-138.24 122.88v266.24h276.48V184.32z" p-id="3677" fill="#11564b"></path></svg>
