<svg t="1620133469335" class="icon" viewBox="0 0 1024 1024" version="1.1" xmlns="http://www.w3.org/2000/svg" p-id="3751" width="200" height="200"><path d="M687.840284 179.342222c23.466667-25.998222 46.933333-59.790222 52.138667-90.965333 2.616889-28.586667-13.027556-54.613333-41.699555-64.995556l-5.205334-2.588444c-2.616889 0-93.838222-20.792889-174.648889-20.792889h-7.793777c-83.427556 0-172.032 20.792889-177.237334 20.792889l-5.233778 2.588444c-28.643556 10.410667-46.904889 38.968889-44.288 67.584 2.588444 28.586667 28.672 62.378667 52.110223 88.376889C158.773618 262.485333 28.441173 457.386667 28.441173 644.551111 28.441173 899.242667 187.445618 1024 513.21984 1024c185.059556 0 312.775111-38.968889 390.968889-116.963556 62.549333-62.378667 93.809778-148.138667 91.221333-262.485333 0-187.136-130.332444-382.065778-307.569778-465.208889zM513.21984 77.937778c54.727111 0 114.688 10.410667 143.36 15.587555-7.822222 15.616-26.055111 36.408889-46.933333 57.173334h-195.470223c-18.232889-20.764444-36.494222-41.557333-46.933333-57.173334 28.700444-5.176889 88.632889-15.587556 145.976889-15.587555zM846.844729 852.48c-62.577778 62.350222-172.032 93.553778-336.213333 93.553778-354.474667 0-403.996444-153.344-403.996445-301.511111 0-166.314667 132.920889-350.833778 297.130667-410.624H620.085618c164.209778 59.790222 297.130667 241.720889 297.130666 410.652444 0 93.582222-20.849778 161.137778-70.371555 207.928889z" p-id="3752" fill="#11564b"></path><path d="M682.663396 661.048889c0-34.360889-9.699556-50.289778-25.656889-62.748445-7.623111-5.973333-17.322667-11.946667-36.721778-21.902222-21.504-10.979556-42.951111-20.935111-65.137778-31.374222-29.838222-13.454222-53.390222-23.893333-59.619555-33.365333-2.104889-3.498667-3.470222-8.96-3.470223-17.92 0-16.440889-0.711111-34.872889 30.492445-34.872889 14.563556 0 31.203556 1.479111 34.645333 13.937778 1.422222 4.977778 1.422222 6.485333 1.422222 14.449777v25.884445h112.270223c0.682667-26.88 3.470222-65.223111-21.504-87.637334-22.869333-21.418667-60.984889-23.893333-94.947556-25.884444V341.333333h-57.543111v58.254223c-33.962667 1.991111-70.684444 5.973333-94.264889 26.396444-23.552 19.911111-26.339556 46.819556-26.339556 71.708444 0 35.868444 9.699556 51.313778 26.339556 64.256 14.563556 11.463111 38.115556 22.897778 42.296889 24.888889 20.081778 9.955556 40.192 20.423111 60.984889 30.378667 29.127111 14.449778 48.526222 22.926222 54.755555 34.360889 3.470222 6.485333 3.470222 16.440889 3.470223 17.92 0 12.458667 2.076444 30.890667-39.509334 30.890667-24.263111 0-32.568889-7.964444-35.356444-15.928889-2.759111-6.485333-2.076444-13.937778-2.076445-15.928889v-24.917334H370.058951c-1.393778 50.801778 1.393778 73.699556 29.098667 93.127112 26.339556 17.92 59.619556 20.906667 71.395555 21.902222 8.334222 0.995556 17.351111 1.991111 26.339556 2.503111V824.888889h57.543111v-63.715556c35.356444-3.015111 67.242667-6.513778 94.264889-24.433777 30.492444-19.911111 33.962667-47.786667 33.962667-75.690667z" p-id="3753" fill="#11564b"></path></svg>
