<svg t="1617007343433" class="icon" viewBox="0 0 1024 1024" version="1.1" xmlns="http://www.w3.org/2000/svg" p-id="3895" width="128" height="128"><path d="M923.2 289.6c0 354.4-232.8 609.6-575.2 620.8-144.8 11.2-244-32.8-332.8-99.2 99.2 11.2 232.8-21.6 298.4-88.8-99.2 0-155.2-56-188-132h88.8C125.6 556.8 58.4 490.4 58.4 380c21.6 11.2 44 21.6 88.8 21.6-77.6-44-121.6-188-66.4-276.8 99.2 110.4 220.8 210.4 421.6 220.8-56-220.8 232.8-332.8 354.4-188 56-11.2 88.8-32.8 132-56-11.2 56-44 88.8-88.8 110.4 44 0 77.6-11.2 110.4-32.8-10.4 44-54.4 88.8-87.2 110.4z" fill="#11564b" p-id="3896"></path></svg>
