<svg t="1617007294622" class="icon" viewBox="0 0 1424 1024" version="1.1" xmlns="http://www.w3.org/2000/svg" p-id="3127" width="128" height="128"><path d="M721.103568 190.434004a737.881698 737.881698 0 0 0 22.074145 157.545308s112.462428 273.167543 327.418315 344.285454c62.395063-44.504324 116.60133-102.226433 158.39089-170.94111l10.592029-17.935243c4.717458-8.366813 9.123387-16.733626 13.262289-25.100439l8.54483-17.935242c37.383632-81.887957 57.989135-176.059107 55.941936-278.864097h0.31153c0-28.037724-8.856361-147.309314-24.744404-179.886479-42.991177 16.733626-121.630319 70.539354-139.298535 125.502194a854.216002 854.216002 0 0 0-264.667218 3.29332c-14.152375-59.190751-84.558216-104.585162-137.518362-129.997131-22.385675 38.273719-32.399148 127.282368-29.728889 190.3895-0.31153-0.623061-0.578556-0.31153-0.578556-0.311531z m681.895259 772.595072c-27.058629-30.796992-80.107784-45.127385-124.256074-44.237299-20.293972-24.477378-113.664045-126.125255-170.184537-186.473119l-29.150332 19.715416-25.322961-8.366813c-235.561389-77.70455-355.100004-362.843757-360.084488-374.770916l-1.468643-3.560346-0.578556-2.403234C523.237342 416.961015 349.180929 527.287235 247.889087 634.587162l-17.089661 18.246773a1689.384154 1689.384154 0 0 0-23.587292 26.257551C87.495502 814.473641 0 960.358816 0 984.257638v12.55022h157.812334l-2.670259-14.953453c-8.811856-47.797644 8.900865-107.611456 45.394411-152.115781 22.964231-28.082229 60.61489-60.080838 120.117171-74.722761 48.865748-17.935243 177.572254-3.560346 177.572255-3.560346 254.342214 23.008736 497.558347 127.015342 772.283541 272.544483h151.047677l2.047199-10.146986c2.670259-13.796341-4.984484-33.200226-20.605502-50.823938z m-789.373202-93.54809c-18.558303-12.238689-47.13008-14.063367-73.343127-4.761963a162.129254 162.129254 0 0 1-34.713373-66.355948l-7.387718-0.890086s-78.906167-8.989874-136.895302-4.183407a1729.927594 1729.927594 0 0 0 154.563519 123.098962h117.179886V903.838324c0-13.751836-7.031683-25.990525-19.403885-34.357338z m-411.932027-259.415707l10.90356-11.660133c2.047199-2.403234 4.405928-4.761963 6.764657-6.853666C187.274197 538.902864 173.121822 494.39854 168.404364 459.151115c-7.654744-56.208962 5.607545-107.878482 38.273718-149.445522C258.21409 244.862793 331.245686 240.367856 406.324482 253.229606c-1.468643 11.971663 0 23.587292 4.717458 30.796992 19.715416 29.862402 126.614803 40.320918 190.478509 11.348603-47.085575-66.934504-142.191316-99.511669-168.67139-86.338389-8.856361 4.450432-15.353992 12.238689-19.75992 21.495588-25.901517-4.806467-51.803034-8.366813-70.672867-8.099787-66.222435 0.623061-116.868356 23.943327-154.875049 71.740971-37.072102 46.907558-52.38159 105.208223-43.569734 168.582381 6.497631 46.907558 25.901517 96.218349 57.722109 147.309314z" fill="#11564b" p-id="3128"></path></svg>
