<svg t="1617007544122" class="icon" viewBox="0 0 1168 1024" version="1.1" xmlns="http://www.w3.org/2000/svg" p-id="2581" width="128" height="128"><path d="M704.423038 540.234661s2.647974 31.777686 124.46577 13.239869c0 0-15.889843 336.322676 7.943922 444.898603 0 0-7.943921 31.779686-37.074634-76.797241-29.129712-108.576927-37.074634-132.410691-50.315503-137.706639-13.241869-5.296948-71.502293 31.777686-100.632005 95.335058-29.129712 60.909398-45.019555 137.706639-45.019555 137.706639s-18.537817 15.889843-18.537817-7.944921c0-23.833764 15.889843-148.298534 15.889843-148.298535s-34.42666 87.390136-39.723607 132.408692c-5.295948 45.019555-18.536817 5.296948-15.889843-10.591896 2.648974-13.240869 15.889843-76.798241 0-113.872874 0 0-15.888843-7.944921-111.223901 140.354613 0 0-7.944921 21.185791-18.537817 13.240869-10.592895-7.943921 0-23.833764 10.592895-47.667529s50.316503-119.168822 63.557372-129.761718c0 0-39.723607 7.944921-60.909398-2.647974-21.184791-10.592895-47.667529-29.129712-29.129712-108.576927 5.295948-31.778686 7.944921 0 5.295948 21.185791-5.295948 47.667529 13.241869 74.149267 50.316502 66.205346 39.722607-7.944921 58.260424-39.723607 58.260425-39.723608L704.423038 540.234661z m455.491499-479.325263s-39.723607 42.370581-127.114744 39.722607c-39.722607 0-63.556372-2.647974-68.85332-18.537816-7.943921-23.833764 60.909398-60.909398 143.003587-55.612451 0 0-74.149267-39.722607-309.839938-21.18579C561.419452 23.833764 240.986618 166.838351 240.986618 166.838351s2.647974 13.239869-29.129712-7.944921c-31.779686-21.185791-68.85332-39.723607-79.446215-37.074634-10.592895 2.647974-31.779686 0-34.426659 47.667529L0 407.82297s63.557372 47.668529 140.354613 18.537816 76.798241-127.113744 58.260424-161.540403c0 0 10.592895-2.647974 21.185791 15.889843s132.410691 87.390136 172.133299 105.927953c42.371581 18.536817 270.11733 97.983032 325.72978 111.224901 55.61245 13.239869 119.168822 2.647974 143.002587-21.185791 26.482738-23.833764 158.89243-169.485325 190.671116-225.097775 0 0-410.471943 66.205346-526.992792 18.537816 0 0-18.537817 7.943921-26.481738 2.647974-7.944921-5.296948 5.295948-37.074634 13.239869-34.426659 7.944921 2.647974 15.889843 13.240869 15.889843 13.240869s132.410691 50.315503 540.234661-23.833765c0 0 121.816796-116.520848 92.687084-166.837351z m-643.51364 84.742163c-23.834764 2.647974-23.834764-34.42666-13.24187-58.260425 5.296948-15.889843 42.371581-21.185791 39.723608 5.295948 0 31.778686-5.296948 50.316503-26.482738 52.964477z m0 0" fill="#11564b" p-id="2582"></path></svg>
