<svg t="1617007852592" class="icon" viewBox="0 0 1024 1024" version="1.1" xmlns="http://www.w3.org/2000/svg" p-id="13630" width="128" height="128"><path d="M833.844267 708.404267c3.8848-89.730133 134.6208-95.0048 134.6208-4.340267-8.743467 151.282133-85.188267 240.647467-179.117867 277.700267 0.352 0.072533 0.7392 0.138667 1.074133 0.218666-22.218667 12.7392-56.0224 28.64-91.1904 34.7456-387.4144 55.6928-547.607467-221.1584-573.214933-399.5168-23.0432-160.469333 61.728-280.459733 65.138133-308.3168C170.168533 226.133333 58.701867 310.317867 56.533333 291.5264c25.52-148.8576 216.1568-138.084267 264.896-117.245867 294.272-295.761067 541.864533-152.5376 525.445334-26.0608 75.188267-4.965333 109.1296 28.967467 104.2208 56.459734-16.594133 70.018133-86.005333 77.949867-134.6208 69.477333-39.010133-6.807467-60.6528-26.199467-60.791467-17.370667-0.496 30.203733 73.792 32.5184 65.137067 43.424-28.295467 12.452267-145.877333 31.3568-156.327467 56.453334-24.433067 231.851733-201.941333 201.7088-186.736 191.072 70.250667-54.327467 37.4336-128.3968-17.362133-91.1968-268.386133 207.025067-107.688533 543.288533 159.856 539.213866C469.525333 965.294933 345.706667 822.946133 434.336 604.1888c8.954667-4.885333 8.683733 4.347733 8.683733 4.347733-34.818133 146.634667 4.273067 238.016 69.176534 282.277334 124.593067 18.853333 269.351467-86.72 238.821333-248.5632-11.467733-89.058133 116.637867-116.580267 132.0992-27.266134a462.301867 462.301867 0 0 1 2.382933 25.198934c-28.5376 6.090667-54.298667 29.1424-55.992533 68.228266C831.557333 844.309333 722.749867 922.112 617.578667 922.8288c106.4928 1.3952 218.3392-76.663467 216.2656-214.424533zM703.569067 222.0416c15.813333 0 29.954133-7.069867 39.514666-18.194133a41.035733 41.035733 0 0 1-19.969066 5.1648c-22.788267 0-41.259733-18.464-41.259734-41.2544 0-22.779733 18.471467-41.252267 41.258667-41.252267 4.004267 0 7.866667 0.5984 11.533867 1.664-8.682667-6.471467-19.4144-10.3488-31.0784-10.3488-28.778667 0-52.106667 23.329067-52.106667 52.114133 0 28.778667 23.328 52.106667 52.106667 52.106667z m26.0544-71.652267a10.8576 10.8576 0 0 0-16.341334-9.553066 10.866133 10.866133 0 0 0-5.367466 9.553066A10.848 10.848 0 0 0 718.769067 161.066667c5.9232 0 10.7584-4.746667 10.8544-10.6784z" fill="#11564b" p-id="13631"></path></svg>
