<svg t="1620133441887" class="icon" viewBox="0 0 1065 1024" version="1.1" xmlns="http://www.w3.org/2000/svg" p-id="2885" width="200" height="200"><path d="M950.795206 223.982335C834.19991 61.217859 668.749693-8.526164 471.667406 18.032837 199.000674 54.780605 21.485934 287.928567 35.340951 544.225064c14.835526 274.116181 233.531639 478.488338 504.365246 479.809893 82.362747 0.426308 158.373501-17.009698 228.458571-53.032741 13.599232-7.034086 27.710034-14.281325 39.135094-24.256938 19.439654-17.009698 25.749016-38.794047 10.274028-61.77206-14.622372-21.656457-34.78675-29.884206-59.938935-17.606529-13.855017 6.73567-26.98531 15.04868-41.01085 21.230149-152.874125 67.271436-298.884688 53.45905-429.590786-49.792799-131.217668-103.635526-179.987327-244.658283-144.944792-407.124343 35.724628-165.450217 142.259051-272.496209 306.984544-310.821318 165.023909-38.41037 307.240329 12.4482 412.026887 144.8169 106.662315 134.798657 116.083726 284.901778 43.867116 440.291122-5.669899 12.192415-13.982909 23.532213-17.478637 36.278829-6.2241 22.466443-0.341047 43.09976 21.144887 54.567451 20.633317 11.041383 42.076621 9.080365 57.764763-9.464042 10.998752-13.045031 20.24964-28.221604 27.49688-43.739223 84.579549-181.351514 73.026597-357.331544-43.099761-519.62708zM588.603749 349.146426c-0.170523-44.336054 0.596831-88.714739-1.321555-133.008162-1.151032-26.900048-18.416515-41.607682-45.316563-42.971868-24.640615-1.236294-69.488239 14.366587-74.177629 40.925588-1.961018 11.297168-1.278925 23.063274-1.278925 34.658858-0.085262 80.95593-0.426308 161.95449 0.042631 242.910419 0.341047 62.28363 12.831877 101.972924 73.495536 102.953434a7643.70625 7643.70625 0 0 0 171.248009-0.042631c13.343447-0.170523 27.326356-0.639462 39.817187-4.518867 22.722228-7.076716 34.573596-50.517523 32.953624-74.902353-1.406817-21.741719-13.47134-36.662506-34.27518-41.266635-16.711282-3.666251-34.317811-3.794143-51.583294-4.049928-34.232549-0.596831-68.422468-0.170523-109.518579-0.170523-0.042631-44.463947 0.085262-82.490639-0.085262-120.517332z" p-id="2886" fill="#11564b"></path></svg>
