<svg t="1620121405662" class="icon" viewBox="0 0 1289 1024" version="1.1" xmlns="http://www.w3.org/2000/svg" p-id="2121" width="200" height="200"><path d="M1262.592 432.64l-165.376-221.184C1001.472 76.8 965.12 26.624 847.36 26.624h-409.6C316.928 26.624 262.656 120.832 185.344 220.16l-158.72 212.48c-44.032 58.88-32.256 142.336 26.624 186.368 36.864 27.648 82.944 33.28 123.392 19.456v102.912c0 144.384 116.736 261.12 261.12 261.12h409.088c144.384 0 261.12-116.736 261.12-261.12v-104.448c41.472 15.872 89.6 10.752 127.488-17.92 58.88-44.032 71.168-127.488 27.136-186.368zM364.544 491.52c-36.864 1.024-67.072-28.16-68.096-65.024S324.608 359.424 361.472 358.4h3.072c36.864 1.024 65.536 31.232 65.024 68.096-1.024 35.328-29.696 64-65.024 65.024z m427.52 346.624c-60.928 0-117.248-31.744-149.504-83.456-32.256 51.712-88.576 82.944-149.504 83.456-18.432-0.512-32.768-15.872-32.256-34.304 0.512-17.408 14.336-31.232 32.256-32.256 60.416 0 110.08-49.152 110.08-110.08-6.144-8.192-9.728-17.92-9.728-28.672 0-27.136 22.016-48.64 48.64-48.64s48.64 22.016 48.64 48.64c0 10.752-3.584 20.992-9.728 28.672 0 60.928 49.152 110.08 110.08 110.08 18.432 0.512 32.768 15.872 32.256 34.304 0 17.408-13.824 31.744-31.232 32.256zM920.576 491.52c-36.864 1.024-67.072-28.16-68.096-65.024S880.64 359.424 917.504 358.4h3.072c36.864 1.024 65.536 31.232 65.024 68.096-1.024 35.328-29.696 64-65.024 65.024z" p-id="2122" fill="#11564b"></path></svg>
