<svg t="1626661889915" class="icon" viewBox="0 0 1024 1024" version="1.1" xmlns="http://www.w3.org/2000/svg" p-id="3630" width="200" height="200"><path d="M621.7 325.3H402.3c-44.9 0-81.4 36.5-81.4 81.4v219.4c0 44.9 36.5 81.4 81.4 81.4h219.4c44.9 0 81.4-36.5 81.4-81.4V406.7c0-44.9-36.5-81.4-81.4-81.4z m17.4 300.8c0 9.6-7.8 17.4-17.4 17.4H402.3c-9.6 0-17.4-7.8-17.4-17.4V406.7c0-9.6 7.8-17.4 17.4-17.4h219.4c9.6 0 17.4 7.8 17.4 17.4v219.4z" p-id="3631" fill="#11564b"></path><path d="M918.9 540.9c17.7 0 32-14.3 32-32s-14.3-32-32-32h-96.5v-61.6h96.5c17.7 0 32-14.3 32-32s-14.3-32-32-32h-96.5V231.8c0-17.7-14.3-32-32-32H669.6V102c0-17.7-14.3-32-32-32s-32 14.3-32 32v97.8H544V102c0-17.7-14.3-32-32-32s-32 14.3-32 32v97.8h-61.6V102c0-17.7-14.3-32-32-32s-32 14.3-32 32v97.8h-42.3c-9.1 0-17.8 3.9-23.8 10.6L209.8 298c-5.3 5.9-8.2 13.5-8.2 21.4v32h-96.5c-17.7 0-32 14.3-32 32s14.3 32 32 32h96.5V477h-96.5c-17.7 0-32 14.3-32 32s14.3 32 32 32h96.5v61.6h-96.5c-17.7 0-32 14.3-32 32s14.3 32 32 32h96.5v122c0 17.7 14.3 32 32 32h120.8V922c0 17.7 14.3 32 32 32s32-14.3 32-32V820.5H480V922c0 17.7 14.3 32 32 32s32-14.3 32-32V820.5h61.6V922c0 17.7 14.3 32 32 32s32-14.3 32-32V820.5h32.8c8.5 0 16.6-3.4 22.6-9.4l88-88c6-6 9.4-14.1 9.4-22.6v-34h96.5c17.7 0 32-14.3 32-32s-14.3-32-32-32h-96.5v-61.6h96.5zM689.1 756.5H265.6V331.6l60.8-67.8h432v423.4l-69.3 69.3z" p-id="3632" fill="#11564b"></path></svg>
