<svg t="1617008006790" class="icon" viewBox="0 0 1024 1024" version="1.1" xmlns="http://www.w3.org/2000/svg" p-id="14541" width="128" height="128"><path d="M562.016992 1021.66c-14.221998-47.270993-42.043993-84.452987-76.519988-101.927984 15.939998-12.319998 27.858996-31.294995 32.867995-53.596991 18.863997-11.807998 56.447991-33.195995 129.96998-69.31699 0 0 6.652999-3.728999 10.674998 2.706 0 0 40.946994 47.636993 88.839986 45.149993 0 0 8.189999-0.511 11.771998-9.759998 6.360999-16.379997-37.399994-35.609994-37.399994-35.609995-20.583997-9.285999-17.914997-29.429995-17.914997-29.429995 1.353-12.905998-7.384999-20.034997-7.384999-20.034997-15.537998-12.685998-67.269989 21.130997-67.269989 21.130997a4956.614226 4956.614226 0 0 0-109.056983 61.56699c-2.706-29.539995-17.292997-54.765991-37.949994-69.169989 34.585995-5.520999 71.291989-15.794998 107.997983-33.415995 89.424986-39.739994 114.797982-132.857979 114.797982-132.857979 37.399994-124.668981-38.753994-223.196965-38.753994-223.196965-19.631997-25.591996-48.989992-43.505993-77.871988-55.935992C669.099975 202.614128 766.05696 167.663134 783.165958 162.179135c7.165999 18.608997 30.783995 31.257995 57.983991 29.393995 31.806995-2.194 56.301991-23.179996 54.729991-46.942993-1.462-23.763996-28.516996-41.275994-60.323991-39.118993-27.894996 1.901-50.122992 18.352997-54.107991 38.460994-117.392982 37.729994-186.855971 110.373983-223.671965 162.543974-34.109995-10.820998-61.49299-14.220998-61.492991-14.220998s-62.58999-5.410999-100.685984-56.448991c0 0-31.989995 53.267992-110.555983 88.255986 0.329-127.22798 48.989992-208.170967 63.174991-229.156964 16.597997 10.931998 43.212993 6.617999 64.12599-11.734998 24.128996-21.204997 31.623995-53.011992 16.524997-71.108989-15.135998-18.096997-46.979993-15.609998-71.145989 5.593999-21.057997 18.462997-29.319995 44.894993-21.239997 63.35799-67.269989 96.699985-82.296987 191.93797-82.625987 255.88096-28.186996 13.379998-104.084984 60.579991-108.289983 182.103972 0 0-10.747998 193.18097 144.264978 232.884964 0 0 43.505993 14.330998 106.790983 16.560997-18.389997 15.976998-30.636995 41.202994-31.696995 69.865989-27.017996-13.416998-66.39299-32.647995-110.117983-53.011992 0 0-53.742992-30.416995-68.475989-16.816997 0 0-8.189999 7.677999-6.141999 20.509997 0 0 3.984999 19.924997-16.086998 30.489995 0.037 0-42.408993 22.045997-35.059994 37.949994a14.440998 14.440998 0 0 0 12.319998 9.029999c48.002992-0.695 85.878987-50.817992 85.878986-50.817992 3.655999-6.726999 10.529998-3.472999 10.529999-3.473 72.021989 29.795995 110.482983 48.294992 130.882979 59.116991 5.409999 19.449997 16.159997 36.010994 30.161996 47.344992-35.901994 17.291997-64.85699 55.825991-79.224988 104.998984l242.426962-2.01zM220.330046 482.880085c1.353-120.536981 187.075971-124.667981 187.07597-124.667981s216.432966-21.862997 220.490966 106.863983c0 0 22.739996 110.957983-201.735969 128.76298-210.290967 18.132997-205.829968-110.958983-205.829967-110.958982z m75.678988 180.969971c-8.445999-3.07-9.980998-11.039998-8.042999-18.279997 2.559-9.759998 13.526998-9.029999 18.534997-7.603999 69.097989 19.595997 162.763975 29.393995 255.91796-20.399996 6.543999-3.472999 15.939998-2.742 20.107997 4.203999 3.947999 6.580999 1.828 14.623998-5.337999 19.084997-66.64799 41.457994-178.373972 60.541991-281.179956 23.031996z" fill="#11564b" p-id="14542"></path><path d="M347.923026 506.863081s0.293 5.739999 9.980998 4.899999c9.614998-0.805 61.85999-12.466998 129.20198-10.931998 7.275999-0.658 6.689999-6.324999 6.689999-6.324999-4.093999-34.072995-39.922994-58.859991-80.247988-55.459992-40.251994 3.399999-69.682989 33.816995-65.624989 67.81699" p-id="14543" fill="#11564b"></path></svg>
