<svg t="1626662145225" class="icon" viewBox="0 0 1024 1024" version="1.1" xmlns="http://www.w3.org/2000/svg" p-id="6591" width="200" height="200"><path d="M698.445824 833.595392c-7.323648-4.640768-16.785408-4.417536-23.87968 0.626688-59.437056 42.30144-129.370112 64.751616-202.192896 64.751616-72.824832 0-142.798848-22.450176-202.237952-64.751616-7.094272-5.044224-16.515072-5.357568-23.87968-0.669696-7.360512 4.640768-11.200512 13.297664-9.682944 21.866496l26.597376 150.294528c1.787904 10.266624 10.665984 17.719296 21.06368 17.719296l376.283136 0c10.346496 0 19.273728-7.452672 21.061632-17.719296l26.548224-150.294528C709.599232 846.848 705.851392 838.191104 698.445824 833.595392L698.445824 833.595392zM246.21056 184.080384c3.4816 2.230272 7.49568 3.385344 11.513856 3.385344 4.374528 0 8.699904-1.3824 12.408832-4.012032 59.52512-42.350592 129.456128-64.751616 202.237952-64.751616 72.828928 0 142.75584 22.401024 202.192896 64.751616 7.094272 5.044224 16.556032 5.308416 23.967744 0.626688 7.317504-4.644864 11.15136-13.344768 9.547776-21.958656L681.527296 17.58208C679.702528 7.409664 670.861312 0 660.514816 0L284.23168 0c-10.354688 0-19.187712 7.409664-21.06368 17.58208l-26.505216 144.5376C235.053056 170.735616 238.850048 179.43552 246.21056 184.080384L246.21056 184.080384zM602.902528 496.00512l-123.12576 0 0-175.198208c0-10.620928-8.564736-19.236864-19.187712-19.236864-10.616832 0-19.273728 8.613888-19.273728 19.236864l0 200.855552c0 4.061184 1.339392 7.809024 3.477504 10.893312 4.110336 8.699904 12.853248 14.721024 23.119872 14.721024l134.989824 0c14.186496 0 25.657344-11.507712 25.657344-25.614336C628.559872 507.518976 617.089024 496.00512 602.902528 496.00512L602.902528 496.00512zM879.714304 455.798784c-0.7168-1.026048-1.695744-1.652736-2.678784-1.652736l-49.446912 0c-1.026048 0-1.96608 0.626688-2.678784 1.652736-0.712704 0.933888-1.069056 2.279424-1.069056 3.704832l0 17.94048-19.32288 0C788.678656 309.694464 647.077888 178.05312 475.224064 178.05312c-182.421504 0-330.758144 148.3776-330.758144 330.805248s148.334592 330.76224 330.758144 330.76224c171.853824 0 313.454592-131.643392 329.293824-299.341824l19.32288 0 0 17.891328c0 1.431552 0.356352 2.813952 1.069056 3.74784 0.712704 1.026048 1.652736 1.56672 2.67264 1.56672l49.446912 0c0.98304 0 1.96608-0.540672 2.678784-1.517568 0.712704-0.98304 1.161216-2.36544 1.161216-3.796992l0-98.666496C880.869376 458.078208 880.427008 456.73472 879.714304 455.798784L879.714304 455.798784zM475.224064 768.223232c-142.977024 0-259.26656-116.385792-259.26656-259.364864 0-143.020032 116.287488-259.405824 259.26656-259.405824 143.071232 0 259.411968 116.385792 259.411968 259.405824C734.636032 651.83744 618.293248 768.223232 475.224064 768.223232L475.224064 768.223232zM475.224064 768.223232" p-id="6592" fill="#11564b"></path></svg>
