<svg t="1626595656546" class="icon" viewBox="0 0 1024 1024" version="1.1" xmlns="http://www.w3.org/2000/svg" p-id="5145" width="200" height="200"><path d="M514.56 217.6c-5.12-58.88-74.24-87.04-120.32-51.2l-307.2 232.96C43.52 432.64 20.48 481.28 17.92 535.04v286.72c0 58.88 46.08 104.96 104.96 107.52h396.8c38.4-2.56 69.12-25.6 81.92-61.44l40.96-225.28c7.68-46.08 10.24-92.16 12.8-138.24h253.44c35.84 0 66.56-30.72 66.56-66.56 0-35.84-30.72-66.56-66.56-66.56H335.36s179.2-125.44 179.2-153.6c0 2.56 0 0 0 0z" p-id="5146" fill="#11564b"></path></svg>
